<svg xmlns="http://www.w3.org/2000/svg" width="1544" height="500" viewBox="0 0 1544 500">
	<defs>
		<!-- source: https://github.com/WordPress/dashicons/blob/628951563b9c0f0d293af8e40c9b0b3da5e2880d/sources/svg/calendar-alt.svg -->
		<path id="calendar-shape" d="M15 4h3v15h-16v-15h3v-1c0-0.41 0.15-0.76 0.44-1.060 0.29-0.29 0.65-0.44 1.060-0.44s0.77 0.15 1.060 0.44c0.29 0.3 0.44 0.65 0.44 1.060v1h4v-1c0-0.41 0.15-0.76 0.44-1.060 0.29-0.29 0.65-0.44 1.060-0.44s0.77 0.15 1.060 0.44c0.29 0.3 0.44 0.65 0.44 1.060v1zM6 3v2.5c0 0.14 0.050 0.26 0.15 0.36 0.090 0.090 0.21 0.14 0.35 0.14s0.26-0.050 0.35-0.14c0.1-0.1 0.15-0.22 0.15-0.36v-2.5c0-0.14-0.050-0.26-0.15-0.35-0.090-0.1-0.21-0.15-0.35-0.15s-0.26 0.050-0.35 0.15c-0.1 0.090-0.15 0.21-0.15 0.35zM13 3v2.5c0 0.14 0.050 0.26 0.14 0.36 0.1 0.090 0.22 0.14 0.36 0.14s0.26-0.050 0.36-0.14c0.090-0.1 0.14-0.22 0.14-0.36v-2.5c0-0.14-0.050-0.26-0.14-0.35-0.1-0.1-0.22-0.15-0.36-0.15s-0.26 0.050-0.36 0.15c-0.090 0.090-0.14 0.21-0.14 0.35zM17 18v-10h-14v10h14zM7 9v2h-2v-2h2zM9 9h2v2h-2v-2zM13 11v-2h2v2h-2zM7 12v2h-2v-2h2zM9 12h2v2h-2v-2zM13 14v-2h2v2h-2zM7 15v2h-2v-2h2zM11 17h-2v-2h2v2zM15 17h-2v-2h2v2z" />
	</defs>

	<rect width="1544" height="500" fill="#000000"/>

	<g transform="translate(200, 70) scale(18)">
		<use href="#calendar-shape" fill="#FFFFFF" transform="translate(-2, -2) scale(0.75)" opacity="0.6"/>

		<g transform="translate(5, 5) scale(0.75)">
			<use href="#calendar-shape" fill="#000000" stroke="#000000" stroke-width="0.2"/>
			<use href="#calendar-shape" fill="#FFFFFF"/>
		</g>
	</g>

	<g font-family="-apple-system, BlinkMacSystemFont, 'Segoe UI', Roboto, Helvetica, Arial, sans-serif" fill="#FFFFFF">
		<text x="660" y="240" font-size="64" font-weight="bold">Date Block:</text>
		<text x="660" y="315" font-size="64" font-weight="bold" fill="#A0A0A0">Published &amp; Modified</text>
	</g>
	<!-- Props Gemini 3 Pro for help with composition. -->
</svg>
