<?xml version="1.0" encoding="utf-8"?>
<svg xmlns="http://www.w3.org/2000/svg" viewBox="0 0 20 20">
	<title>Icon for the Post Date Block: Published &amp; Modified plugin</title>
	<defs>
		<!-- source: https://github.com/WordPress/dashicons/blob/628951563b9c0f0d293af8e40c9b0b3da5e2880d/sources/svg/calendar-alt.svg -->
		<path id="calendar-shape" d="M15 4h3v15h-16v-15h3v-1c0-0.41 0.15-0.76 0.44-1.060 0.29-0.29 0.65-0.44 1.060-0.44s0.77 0.15 1.060 0.44c0.29 0.3 0.44 0.65 0.44 1.060v1h4v-1c0-0.41 0.15-0.76 0.44-1.060 0.29-0.29 0.65-0.44 1.060-0.44s0.77 0.15 1.060 0.44c0.29 0.3 0.44 0.65 0.44 1.060v1zM6 3v2.5c0 0.14 0.050 0.26 0.15 0.36 0.090 0.090 0.21 0.14 0.35 0.14s0.26-0.050 0.35-0.14c0.1-0.1 0.15-0.22 0.15-0.36v-2.5c0-0.14-0.050-0.26-0.15-0.35-0.090-0.1-0.21-0.15-0.35-0.15s-0.26 0.050-0.35 0.15c-0.1 0.090-0.15 0.21-0.15 0.35zM13 3v2.5c0 0.14 0.050 0.26 0.14 0.36 0.1 0.090 0.22 0.14 0.36 0.14s0.26-0.050 0.36-0.14c0.090-0.1 0.14-0.22 0.14-0.36v-2.5c0-0.14-0.050-0.26-0.14-0.35-0.1-0.1-0.22-0.15-0.36-0.15s-0.26 0.050-0.36 0.15c-0.090 0.090-0.14 0.21-0.14 0.35zM17 18v-10h-14v10h14zM7 9v2h-2v-2h2zM9 9h2v2h-2v-2zM13 11v-2h2v2h-2zM7 12v2h-2v-2h2zM9 12h2v2h-2v-2zM13 14v-2h2v2h-2zM7 15v2h-2v-2h2zM11 17h-2v-2h2v2zM15 17h-2v-2h2v2z" />
	</defs>

	<rect width="20" height="20" fill="#000000"/>

	<use href="#calendar-shape" fill="#FFFFFF" transform="translate(0.5, 0.5) scale(0.75)" opacity="0.7"/>

	<g transform="translate(4.5, 4) scale(0.75)">
		<use href="#calendar-shape" fill="#000000" stroke="#000000" stroke-width="2.5"/>
		<use href="#calendar-shape" fill="#FFFFFF"/>
	</g>
	<!-- Props Gemini 3 Pro for help with composition. -->
</svg>
